<svg xmlns="http://www.w3.org/2000/svg" viewBox="0 0 64 64" id="Expert"><path d="M47.0165,5.09429c-2.77576,0-5.36877,.77136-7.60114,2.091C22.13173-.39247,1.71028,13.15453,2.0168,32.09459c1.48193,35.81702,52.52124,35.81006,53.99969-.00031,11.3797-8.6134,5.44879-26.89911-9-27ZM29.0165,57.09429c-13.78516,0-25-11.21484-25-25C3.68813,15.1483,21.65016,2.56371,37.42891,8.57066c-1.26624,1.05524-2.34418,2.32233-3.20746,3.73505-7.70532-3.94086-17.36127,2.10785-17.20483,10.78876-.00012,5.58978,3.8299,10.28979,8.99988,11.61981v.70001c-6.27997,1.38-11,6.98999-11,13.67999,0,.54999,.45001,1,1,1h26c.54999,0,1-.45001,1-1,0-6.69-4.71997-12.29999-11-13.67999v-.70001c2.08093-.53534,3.94019-1.62024,5.42303-3.08673,4.28796,3.77747,11.48279,4.58398,16.54468,1.73877-.66455,13.19641-11.60913,23.72797-24.96771,23.72797Zm0-24c-5.51001,0-10-4.48999-10-10-.17279-7.16425,7.91217-12.2597,14.26929-9.01703-2.44434,5.20068-1.20386,12.12329,2.69745,16.14404-1.80261,1.76605-4.25195,2.87299-6.96674,2.87299Zm1,2v1c0,.54999-.45001,1-1,1s-1-.45001-1-1v-1h2Zm27.12109-15.87891l-9,9c-1.11646,1.1637-3.12573,1.16412-4.24219-.00006,0,.00006-5-4.99994-5-4.99994-2.72296-2.86761,1.37146-6.96729,4.24225-4.24213-.00006-.00006,2.87885,2.87885,2.87885,2.87885l6.87891-6.87891c2.86926-2.72418,6.96643,1.37323,4.24219,4.24219Z" fill="#c1721b" class="color000000 svgShape"></path></svg>