<svg width="614" height="229" viewBox="0 0 614 229" fill="none" xmlns="http://www.w3.org/2000/svg">
<g filter="url(#filter0_d_20_77)">
<mask id="path-1-inside-1_20_77" fill="white">
<path fill-rule="evenodd" clip-rule="evenodd" d="M259.008 70.0824L248.058 89.0477L243.536 86.4365L254.485 67.4711L259.008 70.0824ZM261.844 65.1699L280.603 76L258.058 115.048L253.536 112.437L273.244 78.3013L259.008 70.0824L261.844 65.1699ZM257.321 62.5586L254.485 67.4711L195.301 33.3013L148.137 114.991L148.018 114.922L100.603 197.048L14 147.048L22.7583 131.878L27.2811 134.489L21.359 144.746L99.3013 189.746L146.465 108.056L146.585 108.126L194 26L257.321 62.5586ZM30.1173 129.577L89.3013 163.746L136.465 82.0564L136.585 82.1255L184 0L270.603 50L261.844 65.1699L257.321 62.5586L263.244 52.3013L185.301 7.30127L138.137 88.9913L138.018 88.9222L90.6025 171.048L27.2811 134.489L30.1173 129.577ZM30.1173 129.577L25.5946 126.965L36.5442 108L41.067 110.611L30.1173 129.577ZM25.5946 126.965L22.7583 131.878L4 121.048L26.5442 82L31.067 84.6112L11.359 118.746L25.5946 126.965Z"/>
</mask>
<path fill-rule="evenodd" clip-rule="evenodd" d="M259.008 70.0824L248.058 89.0477L243.536 86.4365L254.485 67.4711L259.008 70.0824ZM261.844 65.1699L280.603 76L258.058 115.048L253.536 112.437L273.244 78.3013L259.008 70.0824L261.844 65.1699ZM257.321 62.5586L254.485 67.4711L195.301 33.3013L148.137 114.991L148.018 114.922L100.603 197.048L14 147.048L22.7583 131.878L27.2811 134.489L21.359 144.746L99.3013 189.746L146.465 108.056L146.585 108.126L194 26L257.321 62.5586ZM30.1173 129.577L89.3013 163.746L136.465 82.0564L136.585 82.1255L184 0L270.603 50L261.844 65.1699L257.321 62.5586L263.244 52.3013L185.301 7.30127L138.137 88.9913L138.018 88.9222L90.6025 171.048L27.2811 134.489L30.1173 129.577ZM30.1173 129.577L25.5946 126.965L36.5442 108L41.067 110.611L30.1173 129.577ZM25.5946 126.965L22.7583 131.878L4 121.048L26.5442 82L31.067 84.6112L11.359 118.746L25.5946 126.965Z" fill="#FECE48"/>
<path d="M248.058 89.0477L246.058 92.5118L249.522 94.5118L251.522 91.0477L248.058 89.0477ZM243.536 86.4365L240.071 84.4365L238.071 87.9006L241.536 89.9006L243.536 86.4365ZM280.603 76L284.067 78L286.067 74.5359L282.603 72.5359L280.603 76ZM258.058 115.048L256.058 118.512L259.522 120.512L261.522 117.048L258.058 115.048ZM253.536 112.437L250.071 110.437L248.071 113.901L251.536 115.901L253.536 112.437ZM273.244 78.3013L276.708 80.3013L278.708 76.8372L275.244 74.8372L273.244 78.3013ZM195.301 33.3013L197.301 29.8372L193.837 27.8372L191.837 31.3013L195.301 33.3013ZM148.137 114.991L146.137 118.455L149.602 120.455L151.602 116.991L148.137 114.991ZM148.018 114.922L150.018 111.458L146.554 109.458L144.554 112.922L148.018 114.922ZM100.603 197.048L98.6025 200.512L102.067 202.512L104.067 199.048L100.603 197.048ZM14 147.048L10.5359 145.048L8.5359 148.512L12 150.512L14 147.048ZM21.359 144.746L17.8949 142.746L15.8949 146.211L19.359 148.211L21.359 144.746ZM99.3013 189.746L97.3013 193.211L100.765 195.211L102.765 191.746L99.3013 189.746ZM146.465 108.056L148.465 104.592L145.001 102.592L143.001 106.056L146.465 108.056ZM146.585 108.126L144.585 111.59L148.049 113.59L150.049 110.126L146.585 108.126ZM194 26L196 22.5359L192.536 20.5359L190.536 24L194 26ZM89.3013 163.746L87.3013 167.211L90.7654 169.211L92.7654 165.746L89.3013 163.746ZM136.465 82.0564L138.465 78.5923L135.001 76.5923L133.001 80.0564L136.465 82.0564ZM136.585 82.1255L134.585 85.5896L138.049 87.5897L140.049 84.1255L136.585 82.1255ZM184 0L186 -3.4641L182.536 -5.4641L180.536 -2L184 0ZM270.603 50L274.067 52L276.067 48.5359L272.603 46.5359L270.603 50ZM263.244 52.3013L266.708 54.3013L268.708 50.8372L265.244 48.8372L263.244 52.3013ZM185.301 7.30127L187.301 3.83717L183.837 1.83717L181.837 5.30127L185.301 7.30127ZM138.137 88.9913L136.137 92.4554L139.602 94.4554L141.602 90.9913L138.137 88.9913ZM138.018 88.9222L140.018 85.4581L136.554 83.4581L134.554 86.9222L138.018 88.9222ZM90.6025 171.048L88.6025 174.512L92.0666 176.512L94.0666 173.048L90.6025 171.048ZM36.5442 108L38.5442 104.536L35.0801 102.536L33.0801 106L36.5442 108ZM41.067 110.611L44.5311 112.611L46.5311 109.147L43.067 107.147L41.067 110.611ZM4 121.048L0.535898 119.048L-1.4641 122.512L2 124.512L4 121.048ZM26.5442 82L28.5442 78.5359L25.0801 76.5359L23.0801 80L26.5442 82ZM31.067 84.6112L34.5311 86.6112L36.5311 83.1471L33.067 81.1471L31.067 84.6112ZM11.359 118.746L7.89491 116.746L5.89491 120.211L9.35901 122.211L11.359 118.746ZM251.522 91.0477L262.472 72.0824L255.544 68.0824L244.594 87.0477L251.522 91.0477ZM241.536 89.9006L246.058 92.5118L250.058 85.5836L245.536 82.9724L241.536 89.9006ZM251.021 65.4711L240.071 84.4365L247 88.4365L257.949 69.4711L251.021 65.4711ZM252.485 70.9352L257.008 73.5465L261.008 66.6183L256.485 64.007L252.485 70.9352ZM282.603 72.5359L263.844 61.7058L259.844 68.634L278.603 79.4641L282.603 72.5359ZM261.522 117.048L284.067 78L277.138 74L254.594 113.048L261.522 117.048ZM251.536 115.901L256.058 118.512L260.058 111.584L255.536 108.972L251.536 115.901ZM269.779 76.3013L250.071 110.437L257 114.437L276.708 80.3013L269.779 76.3013ZM257.008 73.5465L271.244 81.7654L275.244 74.8372L261.008 66.6183L257.008 73.5465ZM262.472 72.0824L265.308 67.1699L258.38 63.1699L255.544 68.0824L262.472 72.0824ZM253.857 60.5586L251.021 65.4711L257.949 69.4711L260.786 64.5586L253.857 60.5586ZM193.301 36.7654L252.485 70.9352L256.485 64.007L197.301 29.8372L193.301 36.7654ZM151.602 116.991L198.765 35.3013L191.837 31.3013L144.673 112.991L151.602 116.991ZM146.018 118.386L146.137 118.455L150.137 111.527L150.018 111.458L146.018 118.386ZM104.067 199.048L151.482 116.922L144.554 112.922L97.1384 195.048L104.067 199.048ZM12 150.512L98.6025 200.512L102.603 193.584L16 143.584L12 150.512ZM19.2942 129.878L10.5359 145.048L17.4641 149.048L26.2224 133.878L19.2942 129.878ZM20.7583 135.342L25.2811 137.953L29.2811 131.025L24.7583 128.414L20.7583 135.342ZM24.8231 146.746L30.7452 136.489L23.817 132.489L17.8949 142.746L24.8231 146.746ZM101.301 186.282L23.359 141.282L19.359 148.211L97.3013 193.211L101.301 186.282ZM143.001 106.056L95.8372 187.746L102.765 191.746L149.929 110.056L143.001 106.056ZM148.585 104.661L148.465 104.592L144.465 111.521L144.585 111.59L148.585 104.661ZM190.536 24L143.121 106.126L150.049 110.126L197.464 28L190.536 24ZM259.321 59.0945L196 22.5359L192 29.4641L255.321 66.0227L259.321 59.0945ZM91.3013 160.282L32.1173 126.112L28.1173 133.041L87.3013 167.211L91.3013 160.282ZM133.001 80.0564L85.8372 161.746L92.7654 165.746L139.929 84.0564L133.001 80.0564ZM138.585 78.6615L138.465 78.5923L134.465 85.5205L134.585 85.5896L138.585 78.6615ZM180.536 -2L133.121 80.1255L140.049 84.1255L187.464 2L180.536 -2ZM272.603 46.5359L186 -3.4641L182 3.4641L268.603 53.4641L272.603 46.5359ZM265.308 67.1699L274.067 52L267.138 48L258.38 63.1699L265.308 67.1699ZM263.844 61.7058L259.321 59.0945L255.321 66.0227L259.844 68.634L263.844 61.7058ZM259.779 50.3013L253.857 60.5586L260.786 64.5586L266.708 54.3013L259.779 50.3013ZM183.301 10.7654L261.244 55.7654L265.244 48.8372L187.301 3.83717L183.301 10.7654ZM141.602 90.9913L188.765 9.30127L181.837 5.30127L134.673 86.9913L141.602 90.9913ZM136.018 92.3863L136.137 92.4554L140.137 85.5272L140.018 85.4581L136.018 92.3863ZM94.0666 173.048L141.482 90.9222L134.554 86.9222L87.1384 169.048L94.0666 173.048ZM25.2811 137.953L88.6025 174.512L92.6025 167.584L29.2811 131.025L25.2811 137.953ZM30.7452 136.489L33.5814 131.577L26.6532 127.577L23.817 132.489L30.7452 136.489ZM32.1173 126.112L27.5946 123.501L23.5946 130.429L28.1173 133.041L32.1173 126.112ZM33.0801 106L22.1305 124.965L29.0587 128.965L40.0083 110L33.0801 106ZM43.067 107.147L38.5442 104.536L34.5442 111.464L39.067 114.075L43.067 107.147ZM33.5814 131.577L44.5311 112.611L37.6029 108.611L26.6532 127.577L33.5814 131.577ZM22.1305 124.965L19.2942 129.878L26.2224 133.878L29.0587 128.965L22.1305 124.965ZM2 124.512L20.7583 135.342L24.7583 128.414L6 117.584L2 124.512ZM23.0801 80L0.535898 119.048L7.4641 123.048L30.0083 84L23.0801 80ZM33.067 81.1471L28.5442 78.5359L24.5442 85.4641L29.067 88.0753L33.067 81.1471ZM14.8231 120.746L34.5311 86.6112L27.6029 82.6112L7.89491 116.746L14.8231 120.746ZM27.5946 123.501L13.359 115.282L9.35901 122.211L23.5946 130.429L27.5946 123.501Z" fill="#FECE48" fill-opacity="0.533333" mask="url(#path-1-inside-1_20_77)"/>
</g>
<path d="M129.264 197V107.4H151.024V197H129.264ZM139.376 162.696V144.52H185.712V162.696H139.376ZM139.376 126.6V107.4H190.96V126.6H139.376ZM229.426 198.152C223.709 198.152 218.589 196.659 214.066 193.672C209.629 190.6 206.087 186.419 203.442 181.128C200.797 175.752 199.474 169.693 199.474 162.952C199.474 156.04 200.797 149.939 203.442 144.648C206.087 139.357 209.714 135.219 214.322 132.232C218.93 129.16 224.178 127.624 230.066 127.624C233.309 127.624 236.253 128.093 238.898 129.032C241.629 129.971 244.018 131.293 246.066 133C248.114 134.621 249.863 136.541 251.314 138.76C252.765 140.893 253.831 143.197 254.514 145.672L250.29 145.16V129.032H270.642V197H249.906V180.616L254.514 180.488C253.831 182.877 252.722 185.139 251.186 187.272C249.65 189.405 247.773 191.283 245.554 192.904C243.335 194.525 240.861 195.805 238.13 196.744C235.399 197.683 232.498 198.152 229.426 198.152ZM235.058 180.872C238.215 180.872 240.946 180.147 243.25 178.696C245.554 177.245 247.346 175.197 248.626 172.552C249.906 169.821 250.546 166.621 250.546 162.952C250.546 159.283 249.906 156.125 248.626 153.48C247.346 150.749 245.554 148.659 243.25 147.208C240.946 145.672 238.215 144.904 235.058 144.904C231.986 144.904 229.298 145.672 226.994 147.208C224.775 148.659 223.026 150.749 221.746 153.48C220.466 156.125 219.826 159.283 219.826 162.952C219.826 166.621 220.466 169.821 221.746 172.552C223.026 175.197 224.775 177.245 226.994 178.696C229.298 180.147 231.986 180.872 235.058 180.872ZM329.545 198.408C326.473 198.408 323.529 197.981 320.713 197.128C317.897 196.275 315.337 195.123 313.033 193.672C310.814 192.221 308.937 190.557 307.401 188.68C305.95 186.717 304.969 184.712 304.457 182.664L308.937 181.128L307.785 196.872H288.713V102.28H309.321V145.288L305.097 143.752C305.609 141.533 306.59 139.485 308.041 137.608C309.492 135.645 311.326 133.939 313.545 132.488C315.764 130.952 318.196 129.757 320.841 128.904C323.486 128.051 326.217 127.624 329.033 127.624C334.921 127.624 340.126 129.16 344.649 132.232C349.257 135.219 352.884 139.4 355.529 144.776C358.174 150.067 359.497 156.125 359.497 162.952C359.497 169.864 358.174 176.008 355.529 181.384C352.969 186.675 349.428 190.856 344.905 193.928C340.382 196.915 335.262 198.408 329.545 198.408ZM324.169 181.128C327.241 181.128 329.929 180.36 332.233 178.824C334.537 177.288 336.286 175.197 337.481 172.552C338.761 169.821 339.401 166.621 339.401 162.952C339.401 159.368 338.761 156.211 337.481 153.48C336.286 150.749 334.537 148.659 332.233 147.208C329.929 145.757 327.241 145.032 324.169 145.032C321.012 145.032 318.281 145.757 315.977 147.208C313.673 148.659 311.881 150.749 310.601 153.48C309.321 156.211 308.681 159.368 308.681 162.952C308.681 166.621 309.321 169.821 310.601 172.552C311.881 175.197 313.673 177.288 315.977 178.824C318.281 180.36 321.012 181.128 324.169 181.128ZM398.051 198.152C392.334 198.152 387.214 196.659 382.691 193.672C378.254 190.6 374.712 186.419 372.067 181.128C369.422 175.752 368.099 169.693 368.099 162.952C368.099 156.04 369.422 149.939 372.067 144.648C374.712 139.357 378.339 135.219 382.947 132.232C387.555 129.16 392.803 127.624 398.691 127.624C401.934 127.624 404.878 128.093 407.523 129.032C410.254 129.971 412.643 131.293 414.691 133C416.739 134.621 418.488 136.541 419.939 138.76C421.39 140.893 422.456 143.197 423.139 145.672L418.915 145.16V129.032H439.267V197H418.531V180.616L423.139 180.488C422.456 182.877 421.347 185.139 419.811 187.272C418.275 189.405 416.398 191.283 414.179 192.904C411.96 194.525 409.486 195.805 406.755 196.744C404.024 197.683 401.123 198.152 398.051 198.152ZM403.683 180.872C406.84 180.872 409.571 180.147 411.875 178.696C414.179 177.245 415.971 175.197 417.251 172.552C418.531 169.821 419.171 166.621 419.171 162.952C419.171 159.283 418.531 156.125 417.251 153.48C415.971 150.749 414.179 148.659 411.875 147.208C409.571 145.672 406.84 144.904 403.683 144.904C400.611 144.904 397.923 145.672 395.619 147.208C393.4 148.659 391.651 150.749 390.371 153.48C389.091 156.125 388.451 159.283 388.451 162.952C388.451 166.621 389.091 169.821 390.371 172.552C391.651 175.197 393.4 177.245 395.619 178.696C397.923 180.147 400.611 180.872 403.683 180.872ZM457.338 197V129.032H476.794L477.434 142.856L473.338 144.392C474.277 141.32 475.941 138.547 478.33 136.072C480.805 133.512 483.749 131.464 487.162 129.928C490.575 128.392 494.159 127.624 497.914 127.624C503.034 127.624 507.343 128.691 510.842 130.824C514.341 132.872 516.986 135.987 518.778 140.168C520.57 144.264 521.466 149.299 521.466 155.272V197H500.858V156.936C500.858 154.205 500.474 151.944 499.706 150.152C498.938 148.36 497.743 147.037 496.122 146.184C494.586 145.245 492.666 144.819 490.362 144.904C488.57 144.904 486.906 145.203 485.37 145.8C483.834 146.312 482.511 147.123 481.402 148.232C480.293 149.256 479.397 150.451 478.714 151.816C478.117 153.181 477.818 154.675 477.818 156.296V197H467.706C465.317 197 463.269 197 461.562 197C459.855 197 458.447 197 457.338 197ZM563.676 198.152C557.959 198.152 552.839 196.659 548.316 193.672C543.879 190.6 540.337 186.419 537.692 181.128C535.047 175.752 533.724 169.693 533.724 162.952C533.724 156.04 535.047 149.939 537.692 144.648C540.337 139.357 543.964 135.219 548.572 132.232C553.18 129.16 558.428 127.624 564.316 127.624C567.559 127.624 570.503 128.093 573.148 129.032C575.879 129.971 578.268 131.293 580.316 133C582.364 134.621 584.113 136.541 585.564 138.76C587.015 140.893 588.081 143.197 588.764 145.672L584.54 145.16V129.032H604.892V197H584.156V180.616L588.764 180.488C588.081 182.877 586.972 185.139 585.436 187.272C583.9 189.405 582.023 191.283 579.804 192.904C577.585 194.525 575.111 195.805 572.38 196.744C569.649 197.683 566.748 198.152 563.676 198.152ZM569.308 180.872C572.465 180.872 575.196 180.147 577.5 178.696C579.804 177.245 581.596 175.197 582.876 172.552C584.156 169.821 584.796 166.621 584.796 162.952C584.796 159.283 584.156 156.125 582.876 153.48C581.596 150.749 579.804 148.659 577.5 147.208C575.196 145.672 572.465 144.904 569.308 144.904C566.236 144.904 563.548 145.672 561.244 147.208C559.025 148.659 557.276 150.749 555.996 153.48C554.716 156.125 554.076 159.283 554.076 162.952C554.076 166.621 554.716 169.821 555.996 172.552C557.276 175.197 559.025 177.245 561.244 178.696C563.548 180.147 566.236 180.872 569.308 180.872Z" fill="white"/>
<path fill-rule="evenodd" clip-rule="evenodd" d="M410.002 164.09C410.635 163.187 411 162.13 411 161C411 157.686 407.866 155 404 155C400.134 155 397 157.686 397 161C397 162.13 397.365 163.187 397.998 164.09L404 173L410.002 164.09Z" fill="#694445"/>
<defs>
<filter id="filter0_d_20_77" x="0" y="0" width="284.603" height="205.048" filterUnits="userSpaceOnUse" color-interpolation-filters="sRGB">
<feFlood flood-opacity="0" result="BackgroundImageFix"/>
<feColorMatrix in="SourceAlpha" type="matrix" values="0 0 0 0 0 0 0 0 0 0 0 0 0 0 0 0 0 0 127 0" result="hardAlpha"/>
<feOffset dy="4"/>
<feGaussianBlur stdDeviation="2"/>
<feComposite in2="hardAlpha" operator="out"/>
<feColorMatrix type="matrix" values="0 0 0 0 0 0 0 0 0 0 0 0 0 0 0 0 0 0 0.25 0"/>
<feBlend mode="normal" in2="BackgroundImageFix" result="effect1_dropShadow_20_77"/>
<feBlend mode="normal" in="SourceGraphic" in2="effect1_dropShadow_20_77" result="shape"/>
</filter>
</defs>
</svg>
